<mxfile host="app.diagrams.net" modified="2023-05-03T06:03:07.348Z" agent="Mozilla/5.0 (Windows NT 10.0; Win64; x64) AppleWebKit/537.36 (KHTML, like Gecko) Chrome/112.0.0.0 Safari/537.36 OPR/98.0.0.0" etag="PjekCKda2SnIy2PFrMGn" version="21.2.3" type="github">
  <diagram name="Page-1" id="6PwfSRewTjhyffgZwNPW">
    <mxGraphModel dx="4233" dy="2073" grid="1" gridSize="10" guides="1" tooltips="1" connect="1" arrows="1" fold="1" page="1" pageScale="1" pageWidth="850" pageHeight="1100" math="0" shadow="0">
      <root>
        <mxCell id="0" />
        <mxCell id="1" parent="0" />
        <mxCell id="_uFJQiURIW8TIxWtGwkP-15" style="edgeStyle=orthogonalEdgeStyle;rounded=0;orthogonalLoop=1;jettySize=auto;html=1;exitX=0.5;exitY=1;exitDx=0;exitDy=0;" edge="1" parent="1">
          <mxGeometry relative="1" as="geometry">
            <mxPoint x="480" y="-160" as="sourcePoint" />
            <mxPoint x="480" y="-160" as="targetPoint" />
          </mxGeometry>
        </mxCell>
        <mxCell id="_uFJQiURIW8TIxWtGwkP-31" style="edgeStyle=orthogonalEdgeStyle;rounded=0;orthogonalLoop=1;jettySize=auto;html=1;exitX=0.5;exitY=1;exitDx=0;exitDy=0;" edge="1" parent="1">
          <mxGeometry relative="1" as="geometry">
            <mxPoint x="60" y="-560" as="sourcePoint" />
            <mxPoint x="60" y="-560" as="targetPoint" />
          </mxGeometry>
        </mxCell>
        <mxCell id="_uFJQiURIW8TIxWtGwkP-39" value="" style="rounded=0;whiteSpace=wrap;html=1;" vertex="1" parent="1">
          <mxGeometry x="-2030" y="-1030" width="120" height="50" as="geometry" />
        </mxCell>
        <mxCell id="_uFJQiURIW8TIxWtGwkP-42" value="" style="shape=singleArrow;whiteSpace=wrap;html=1;arrowWidth=0.4;arrowSize=0.4;" vertex="1" parent="1">
          <mxGeometry x="-1040" y="-610" width="160" height="30" as="geometry" />
        </mxCell>
        <mxCell id="_uFJQiURIW8TIxWtGwkP-43" style="edgeStyle=orthogonalEdgeStyle;rounded=0;orthogonalLoop=1;jettySize=auto;html=1;exitX=0.5;exitY=1;exitDx=0;exitDy=0;" edge="1" parent="1">
          <mxGeometry relative="1" as="geometry">
            <mxPoint x="-855" y="-600" as="sourcePoint" />
            <mxPoint x="-855" y="-600" as="targetPoint" />
          </mxGeometry>
        </mxCell>
        <mxCell id="_uFJQiURIW8TIxWtGwkP-48" value="" style="rounded=0;whiteSpace=wrap;html=1;" vertex="1" parent="1">
          <mxGeometry x="-1240" y="-400" width="200" height="200" as="geometry" />
        </mxCell>
        <mxCell id="_uFJQiURIW8TIxWtGwkP-49" value="Sound Sensor" style="text;strokeColor=none;align=center;fillColor=none;html=1;verticalAlign=middle;whiteSpace=wrap;rounded=0;fontSize=30;fontStyle=1" vertex="1" parent="1">
          <mxGeometry x="-1230" y="-390" width="180" height="160" as="geometry" />
        </mxCell>
        <mxCell id="_uFJQiURIW8TIxWtGwkP-50" value="" style="shape=singleArrow;whiteSpace=wrap;html=1;arrowWidth=0.4;arrowSize=0.4;" vertex="1" parent="1">
          <mxGeometry x="-1040" y="-310" width="160" height="30" as="geometry" />
        </mxCell>
        <mxCell id="_uFJQiURIW8TIxWtGwkP-52" value="" style="rounded=0;whiteSpace=wrap;html=1;" vertex="1" parent="1">
          <mxGeometry x="-840" y="-130" width="180" height="130" as="geometry" />
        </mxCell>
        <mxCell id="_uFJQiURIW8TIxWtGwkP-65" value="ESP8266 WiFi module" style="text;strokeColor=none;align=center;fillColor=none;html=1;verticalAlign=middle;whiteSpace=wrap;rounded=0;fontSize=30;fontStyle=1" vertex="1" parent="1">
          <mxGeometry x="-810" y="-90" width="110" height="45" as="geometry" />
        </mxCell>
        <mxCell id="_uFJQiURIW8TIxWtGwkP-67" value="" style="shape=singleArrow;whiteSpace=wrap;html=1;arrowWidth=0.4;arrowSize=0.4;direction=north;" vertex="1" parent="1">
          <mxGeometry x="-800" y="-200" width="80" height="70" as="geometry" />
        </mxCell>
        <mxCell id="_uFJQiURIW8TIxWtGwkP-74" value="" style="rounded=0;whiteSpace=wrap;html=1;" vertex="1" parent="1">
          <mxGeometry x="-480" y="-440" width="200" height="120" as="geometry" />
        </mxCell>
        <mxCell id="_uFJQiURIW8TIxWtGwkP-75" value="&lt;font style=&quot;font-size: 30px;&quot;&gt;Servo Motor&lt;/font&gt;&lt;font style=&quot;font-size: 20px;&quot;&gt;&lt;br style=&quot;font-size: 20px;&quot;&gt;&lt;/font&gt;" style="text;strokeColor=none;align=center;fillColor=none;html=1;verticalAlign=middle;whiteSpace=wrap;rounded=0;fontSize=20;fontStyle=1" vertex="1" parent="1">
          <mxGeometry x="-470" y="-430" width="180" height="100" as="geometry" />
        </mxCell>
        <mxCell id="_uFJQiURIW8TIxWtGwkP-78" value="" style="rounded=0;whiteSpace=wrap;html=1;" vertex="1" parent="1">
          <mxGeometry x="-480" y="-280" width="200" height="120" as="geometry" />
        </mxCell>
        <mxCell id="_uFJQiURIW8TIxWtGwkP-79" value="&lt;font style=&quot;font-size: 30px;&quot;&gt;Relay&lt;/font&gt;" style="text;strokeColor=none;align=center;fillColor=none;html=1;verticalAlign=middle;whiteSpace=wrap;rounded=0;fontSize=20;fontStyle=1" vertex="1" parent="1">
          <mxGeometry x="-530" y="-320" width="300" height="200" as="geometry" />
        </mxCell>
        <mxCell id="_uFJQiURIW8TIxWtGwkP-80" value="" style="shape=singleArrow;whiteSpace=wrap;html=1;arrowWidth=0.4;arrowSize=0.4;" vertex="1" parent="1">
          <mxGeometry x="-640" y="-610" width="160" height="30" as="geometry" />
        </mxCell>
        <mxCell id="_uFJQiURIW8TIxWtGwkP-83" value="" style="shape=singleArrow;whiteSpace=wrap;html=1;arrowWidth=0.4;arrowSize=0.4;" vertex="1" parent="1">
          <mxGeometry x="-640" y="-250" width="160" height="30" as="geometry" />
        </mxCell>
        <mxCell id="_uFJQiURIW8TIxWtGwkP-84" value="" style="ellipse;shape=cloud;whiteSpace=wrap;html=1;" vertex="1" parent="1">
          <mxGeometry x="-1240" y="-140" width="220" height="190" as="geometry" />
        </mxCell>
        <mxCell id="_uFJQiURIW8TIxWtGwkP-87" value="" style="shape=waypoint;sketch=0;size=6;pointerEvents=1;points=[];fillColor=default;resizable=0;rotatable=0;perimeter=centerPerimeter;snapToPoint=1;" vertex="1" parent="1">
          <mxGeometry x="-850" y="-80" width="20" height="20" as="geometry" />
        </mxCell>
        <mxCell id="_uFJQiURIW8TIxWtGwkP-92" value="" style="endArrow=none;dashed=1;html=1;dashPattern=1 3;strokeWidth=2;rounded=0;exitX=0.875;exitY=0.5;exitDx=0;exitDy=0;exitPerimeter=0;" edge="1" parent="1" source="_uFJQiURIW8TIxWtGwkP-84" target="_uFJQiURIW8TIxWtGwkP-87">
          <mxGeometry width="50" height="50" relative="1" as="geometry">
            <mxPoint x="-910" y="-100" as="sourcePoint" />
            <mxPoint x="-910" y="-100" as="targetPoint" />
            <Array as="points" />
          </mxGeometry>
        </mxCell>
        <mxCell id="_uFJQiURIW8TIxWtGwkP-93" value="Cayenne" style="text;strokeColor=none;align=center;fillColor=none;html=1;verticalAlign=middle;whiteSpace=wrap;rounded=0;fontSize=30;fontStyle=1" vertex="1" parent="1">
          <mxGeometry x="-1230" y="-90" width="200" height="95" as="geometry" />
        </mxCell>
        <mxCell id="_uFJQiURIW8TIxWtGwkP-106" value="" style="rounded=0;whiteSpace=wrap;html=1;" vertex="1" parent="1">
          <mxGeometry x="-1240" y="-680" width="200" height="200" as="geometry" />
        </mxCell>
        <mxCell id="_uFJQiURIW8TIxWtGwkP-107" value="Water Sensor" style="text;strokeColor=none;align=center;fillColor=none;html=1;verticalAlign=middle;whiteSpace=wrap;rounded=0;fontSize=30;fontStyle=1" vertex="1" parent="1">
          <mxGeometry x="-1230" y="-640" width="170" height="120" as="geometry" />
        </mxCell>
        <mxCell id="_uFJQiURIW8TIxWtGwkP-109" value="" style="rounded=0;whiteSpace=wrap;html=1;" vertex="1" parent="1">
          <mxGeometry x="-1000" y="-850" width="180" height="110" as="geometry" />
        </mxCell>
        <mxCell id="_uFJQiURIW8TIxWtGwkP-110" value="Temperature and Humidity" style="text;strokeColor=none;align=center;fillColor=none;html=1;verticalAlign=middle;whiteSpace=wrap;rounded=0;fontSize=30;fontStyle=1" vertex="1" parent="1">
          <mxGeometry x="-1000" y="-840" width="180" height="90" as="geometry" />
        </mxCell>
        <mxCell id="_uFJQiURIW8TIxWtGwkP-111" value="" style="rounded=0;whiteSpace=wrap;html=1;" vertex="1" parent="1">
          <mxGeometry x="-730" y="-850" width="170" height="110" as="geometry" />
        </mxCell>
        <mxCell id="_uFJQiURIW8TIxWtGwkP-113" value="Pulse Sensor" style="text;strokeColor=none;align=center;fillColor=none;html=1;verticalAlign=middle;whiteSpace=wrap;rounded=0;fontSize=30;fontStyle=1" vertex="1" parent="1">
          <mxGeometry x="-715" y="-835" width="140" height="80" as="geometry" />
        </mxCell>
        <mxCell id="_uFJQiURIW8TIxWtGwkP-115" value="" style="shape=singleArrow;whiteSpace=wrap;html=1;arrowWidth=0.4;arrowSize=0.4;direction=south;" vertex="1" parent="1">
          <mxGeometry x="-870" y="-740" width="45" height="100" as="geometry" />
        </mxCell>
        <mxCell id="_uFJQiURIW8TIxWtGwkP-116" value="" style="shape=singleArrow;whiteSpace=wrap;html=1;arrowWidth=0.4;arrowSize=0.4;direction=south;" vertex="1" parent="1">
          <mxGeometry x="-720" y="-740" width="45" height="100" as="geometry" />
        </mxCell>
        <mxCell id="_uFJQiURIW8TIxWtGwkP-117" value="" style="rounded=0;whiteSpace=wrap;html=1;" vertex="1" parent="1">
          <mxGeometry x="-160" y="-340" width="160" height="100" as="geometry" />
        </mxCell>
        <mxCell id="_uFJQiURIW8TIxWtGwkP-118" value="&lt;font style=&quot;font-size: 30px;&quot;&gt;&lt;b&gt;&lt;font style=&quot;font-size: 30px;&quot;&gt;D&lt;/font&gt;&lt;font style=&quot;font-size: 30px;&quot;&gt;C&lt;/font&gt;&lt;font style=&quot;font-size: 30px;&quot;&gt;&amp;nbsp;&lt;/font&gt;Motor&lt;/b&gt;&lt;/font&gt;" style="text;strokeColor=none;align=center;fillColor=none;html=1;verticalAlign=middle;whiteSpace=wrap;rounded=0;" vertex="1" parent="1">
          <mxGeometry x="-110" y="-310" width="60" height="45" as="geometry" />
        </mxCell>
        <mxCell id="_uFJQiURIW8TIxWtGwkP-119" value="" style="rounded=0;whiteSpace=wrap;html=1;" vertex="1" parent="1">
          <mxGeometry x="-160" y="-200" width="160" height="100" as="geometry" />
        </mxCell>
        <mxCell id="_uFJQiURIW8TIxWtGwkP-120" value="&lt;font style=&quot;font-size: 30px;&quot;&gt;&lt;b&gt;Bulb&lt;/b&gt;&lt;/font&gt;" style="text;strokeColor=none;align=center;fillColor=none;html=1;verticalAlign=middle;whiteSpace=wrap;rounded=0;" vertex="1" parent="1">
          <mxGeometry x="-131.25" y="-170" width="102.5" height="40" as="geometry" />
        </mxCell>
        <mxCell id="_uFJQiURIW8TIxWtGwkP-126" value="" style="shape=singleArrow;whiteSpace=wrap;html=1;arrowWidth=0.4;arrowSize=0.4;direction=east;" vertex="1" parent="1">
          <mxGeometry x="-280" y="-280" width="120" height="30" as="geometry" />
        </mxCell>
        <mxCell id="_uFJQiURIW8TIxWtGwkP-127" value="" style="shape=singleArrow;whiteSpace=wrap;html=1;arrowWidth=0.4;arrowSize=0.4;" vertex="1" parent="1">
          <mxGeometry x="-280" y="-190" width="120" height="30" as="geometry" />
        </mxCell>
        <mxCell id="_uFJQiURIW8TIxWtGwkP-130" value="" style="rounded=0;whiteSpace=wrap;html=1;" vertex="1" parent="1">
          <mxGeometry x="-480" y="-680" width="200" height="155" as="geometry" />
        </mxCell>
        <mxCell id="_uFJQiURIW8TIxWtGwkP-133" value="&lt;b&gt;Buzzer&lt;/b&gt;" style="text;strokeColor=none;align=center;fillColor=none;html=1;verticalAlign=middle;whiteSpace=wrap;rounded=0;fontSize=30;" vertex="1" parent="1">
          <mxGeometry x="-520" y="-670" width="280" height="130" as="geometry" />
        </mxCell>
        <mxCell id="_uFJQiURIW8TIxWtGwkP-136" value="" style="rounded=0;whiteSpace=wrap;html=1;" vertex="1" parent="1">
          <mxGeometry x="-880" y="-640" width="240" height="440" as="geometry" />
        </mxCell>
        <mxCell id="_uFJQiURIW8TIxWtGwkP-139" value="&lt;font style=&quot;font-size: 30px;&quot;&gt;&lt;b&gt;Arduino UNO&lt;/b&gt;&lt;/font&gt;" style="text;strokeColor=none;align=center;fillColor=none;html=1;verticalAlign=middle;whiteSpace=wrap;rounded=0;" vertex="1" parent="1">
          <mxGeometry x="-840" y="-475" width="160" height="110" as="geometry" />
        </mxCell>
        <mxCell id="_uFJQiURIW8TIxWtGwkP-140" value="" style="shape=singleArrow;whiteSpace=wrap;html=1;arrowWidth=0.4;arrowSize=0.4;" vertex="1" parent="1">
          <mxGeometry x="-640" y="-400" width="160" height="30" as="geometry" />
        </mxCell>
      </root>
    </mxGraphModel>
  </diagram>
</mxfile>
